# 3ds Max Wavefront OBJ Exporter v0.97b - (c)2007 guruware
# File Created: 21.01.2017 05:17:32

mtllib Lilly_mdl.mtl

#
# object Cylinder001
#

v  6.3514 0.0000 2.3176
v  6.6782 0.0000 -0.0000
v  0.0000 0.0000 0.0000
v  6.3514 0.0000 -2.3176
v  5.4028 0.0000 -4.4084
v  3.9254 0.0000 -6.2466
v  2.0637 0.0000 -7.4427
v  0.0000 0.0000 -7.9675
v  -2.0637 0.0000 -7.4427
v  -3.9254 0.0000 -6.2466
v  -5.4028 0.0000 -4.4084
v  -6.3514 0.0000 -2.3176
v  -6.6782 0.0000 -0.0000
v  -6.3514 0.0000 2.3176
v  -5.4028 0.0000 4.4084
v  -3.9254 0.0000 6.0676
v  -2.0637 0.0000 7.1329
v  -0.6771 0.0000 6.7962
v  0.6771 0.0000 6.7962
v  2.0637 0.0000 7.1329
v  3.9254 0.0000 6.0676
v  5.4028 0.0000 4.4084
v  6.6586 0.2805 2.4195
v  7.0013 0.2805 -0.0102
v  5.6642 0.2805 4.6114
v  4.1152 0.2805 6.3509
v  2.1635 0.2805 7.4678
v  0.4043 0.2805 7.1147
v  -2.1635 0.2805 7.4678
v  -0.4043 0.2805 7.1147
v  -4.1152 0.2805 6.3509
v  -5.6642 0.2805 4.6114
v  -6.6586 0.2805 2.4195
v  -7.0013 0.2805 -0.0102
v  -6.6586 0.2805 -2.4400
v  -5.6642 0.2805 -4.6319
v  -4.1152 0.2805 -6.5590
v  -2.1635 0.2805 -7.8130
v  0.0000 0.2805 -8.3632
v  2.1635 0.2805 -7.8130
v  4.1153 0.2805 -6.5590
v  5.6642 0.2805 -4.6319
v  6.6586 0.2805 -2.4400
# 43 vertices

vn 0.0000 1.0000 -0.0000
vn -0.6105 0.7861 -0.0967
vn -0.5536 0.7835 -0.2821
vn -0.4413 0.7813 -0.4413
vn -0.2843 0.7797 -0.5579
vn 0.1264 0.8016 -0.5843
vn 0.1181 0.7414 -0.6606
vn -0.1435 0.7345 -0.6633
vn -0.1067 0.7949 -0.5973
vn 0.2843 0.7797 -0.5579
vn 0.4413 0.7813 -0.4413
vn 0.5536 0.7835 -0.2821
vn 0.6105 0.7861 -0.0967
vn 0.6071 0.7888 0.0962
vn 0.5448 0.7913 0.2776
vn 0.4503 0.7950 0.4064
vn 0.2964 0.8023 0.5181
vn 0.1299 0.8089 0.5735
vn -0.1299 0.8089 0.5735
vn -0.2964 0.8023 0.5181
vn -0.4503 0.7950 0.4064
vn -0.5448 0.7913 0.2776
vn -0.6071 0.7888 0.0962
vn -0.6325 0.7713 -0.0708
vn 0.6325 0.7713 -0.0708
# 25 vertex normals

vt 0.8938 0.3246 0.0000
vt 0.9140 0.4716 0.0000
vt 0.5000 0.4716 0.0000
vt 0.8938 0.6186 0.0000
vt 0.8350 0.7512 0.0000
vt 0.7434 0.8678 0.0000
vt 0.6279 0.9437 0.0000
vt 0.5000 0.9770 0.0000
vt 0.3721 0.9437 0.0000
vt 0.2566 0.8678 0.0000
vt 0.1650 0.7512 0.0000
vt 0.1062 0.6186 0.0000
vt 0.0860 0.4716 0.0000
vt 0.1062 0.3246 0.0000
vt 0.1650 0.1920 0.0000
vt 0.2566 0.0867 0.0000
vt 0.3721 0.0192 0.0000
vt 0.4580 0.0405 0.0000
vt 0.5420 0.0405 0.0000
vt 0.6279 0.0192 0.0000
vt 0.7434 0.0867 0.0000
vt 0.8350 0.1920 0.0000
vt 0.9128 0.3181 0.0000
vt 0.9341 0.4723 0.0000
vt 0.8512 0.1791 0.0000
vt 0.7551 0.0688 0.0000
vt 0.6341 -0.0021 0.0000
vt 0.5251 0.0203 0.0000
vt 0.3659 -0.0021 0.0000
vt 0.4749 0.0203 0.0000
vt 0.2449 0.0688 0.0000
vt 0.1488 0.1791 0.0000
vt 0.0872 0.3181 0.0000
vt 0.0659 0.4723 0.0000
vt 0.0872 0.6264 0.0000
vt 0.1488 0.7654 0.0000
vt 0.2449 0.8876 0.0000
vt 0.3659 0.9672 0.0000
vt 0.5000 1.0021 0.0000
vt 0.6341 0.9672 0.0000
vt 0.7551 0.8876 0.0000
vt 0.8512 0.7654 0.0000
vt 0.9128 0.6264 0.0000
# 43 texture coords

g Cylinder001
usemtl wire_028149177
s off
f 1/1/1 2/2/1 3/3/1 
f 2/2/1 4/4/1 3/3/1 
f 4/4/1 5/5/1 3/3/1 
f 5/5/1 6/6/1 3/3/1 
f 6/6/1 7/7/1 3/3/1 
f 7/7/1 8/8/1 3/3/1 
f 8/8/1 9/9/1 3/3/1 
f 9/9/1 10/10/1 3/3/1 
f 10/10/1 11/11/1 3/3/1 
f 11/11/1 12/12/1 3/3/1 
f 12/12/1 13/13/1 3/3/1 
f 13/13/1 14/14/1 3/3/1 
f 14/14/1 15/15/1 3/3/1 
f 15/15/1 16/16/1 3/3/1 
f 16/16/1 17/17/1 3/3/1 
f 17/17/1 18/18/1 3/3/1 
f 19/19/1 20/20/1 3/3/1 
f 20/20/1 21/21/1 3/3/1 
f 21/21/1 22/22/1 3/3/1 
f 22/22/1 1/1/1 3/3/1 
f 2/2/2 1/1/2 23/23/2 
f 23/23/2 24/24/2 2/2/2 
f 1/1/3 22/22/3 25/25/3 
f 25/25/3 23/23/3 1/1/3 
f 22/22/4 21/21/4 26/26/4 
f 26/26/4 25/25/4 22/22/4 
f 21/21/5 20/20/5 27/27/5 
f 27/27/5 26/26/5 21/21/5 
f 20/20/6 19/19/6 28/28/6 
f 28/28/7 27/27/7 20/20/7 
f 18/18/8 17/17/8 29/29/8 
f 29/29/9 30/30/9 18/18/9 
f 17/17/10 16/16/10 31/31/10 
f 31/31/10 29/29/10 17/17/10 
f 16/16/11 15/15/11 32/32/11 
f 32/32/11 31/31/11 16/16/11 
f 15/15/12 14/14/12 33/33/12 
f 33/33/12 32/32/12 15/15/12 
f 14/14/13 13/13/13 34/34/13 
f 34/34/13 33/33/13 14/14/13 
f 13/13/14 12/12/14 35/35/14 
f 35/35/14 34/34/14 13/13/14 
f 12/12/15 11/11/15 36/36/15 
f 36/36/15 35/35/15 12/12/15 
f 11/11/16 10/10/16 37/37/16 
f 37/37/16 36/36/16 11/11/16 
f 10/10/17 9/9/17 38/38/17 
f 38/38/17 37/37/17 10/10/17 
f 9/9/18 8/8/18 39/39/18 
f 39/39/18 38/38/18 9/9/18 
f 8/8/19 7/7/19 40/40/19 
f 40/40/19 39/39/19 8/8/19 
f 7/7/20 6/6/20 41/41/20 
f 41/41/20 40/40/20 7/7/20 
f 6/6/21 5/5/21 42/42/21 
f 42/42/21 41/41/21 6/6/21 
f 5/5/22 4/4/22 43/43/22 
f 43/43/22 42/42/22 5/5/22 
f 4/4/23 2/2/23 24/24/23 
f 24/24/23 43/43/23 4/4/23 
f 3/3/24 18/18/24 30/30/24 
f 19/19/25 3/3/25 28/28/25 
# 62 faces

