# 3ds Max Wavefront OBJ Exporter v0.97b - (c)2007 guruware
# File Created: 21.01.2017 15:59:47

mtllib grass_mdl.mtl

#
# object Plane002
#

v  -3.3444 -0.0005 -0.2659
v  -4.0777 4.6774 -1.4326
v  0.0010 4.8465 -1.0614
v  0.0000 0.0000 0.0000
v  4.0819 4.6838 -1.4113
v  3.3444 0.0005 -0.2659
v  -5.2000 8.2980 -4.4993
v  0.0077 8.8057 -4.0513
v  5.2219 8.3240 -4.4510
# 9 vertices

vn 0.0862 -0.2190 -0.9719
vn 0.1083 -0.4508 -0.8860
vn -0.0025 -0.4226 -0.9063
vn -0.0032 -0.2173 -0.9761
vn -0.0915 -0.4551 -0.8857
vn -0.0772 -0.2254 -0.9712
vn 0.1270 -0.6179 -0.7760
vn -0.0013 -0.6082 -0.7938
vn -0.1054 -0.6084 -0.7866
vn -0.0862 0.2190 0.9719
vn 0.0032 0.2173 0.9761
vn 0.0025 0.4226 0.9063
vn -0.1083 0.4508 0.8860
vn 0.0772 0.2254 0.9712
vn 0.0915 0.4551 0.8857
vn 0.0013 0.6082 0.7938
vn -0.1270 0.6179 0.7760
vn 0.1054 0.6084 0.7866
# 18 vertex normals

vt 0.0000 0.0000 0.0000
vt 0.0000 0.4022 0.0000
vt 0.5000 0.4022 0.0000
vt 0.5000 0.0000 0.0000
vt 1.0000 0.4022 0.0000
vt 1.0000 0.0000 0.0000
vt 0.0000 0.8044 0.0000
vt 0.5000 0.8044 0.0000
vt 1.0000 0.8044 0.0000
# 9 texture coords

g Plane002
usemtl Material__25
s 1
f 1/1/1 2/2/2 3/3/3 
f 3/3/3 4/4/4 1/1/1 
f 4/4/4 3/3/3 5/5/5 
f 5/5/5 6/6/6 4/4/4 
f 2/2/2 7/7/7 8/8/8 
f 8/8/8 3/3/3 2/2/2 
f 3/3/3 8/8/8 9/9/9 
f 9/9/9 5/5/5 3/3/3 
f 1/1/10 4/4/11 3/3/12 
f 3/3/12 2/2/13 1/1/10 
f 4/4/11 6/6/14 5/5/15 
f 5/5/15 3/3/12 4/4/11 
f 2/2/13 3/3/12 8/8/16 
f 8/8/16 7/7/17 2/2/13 
f 3/3/12 5/5/15 9/9/18 
f 9/9/18 8/8/16 3/3/12 
# 16 faces

